<?xml version="1.0" encoding="utf-8"?>
<!-- Generator: Adobe Illustrator 27.2.0, SVG Export Plug-In . SVG Version: 6.00 Build 0)  -->
<svg version="1.1" id="Layer_1" xmlns="http://www.w3.org/2000/svg" xmlns:xlink="http://www.w3.org/1999/xlink" x="0px" y="0px"
	 viewBox="0 0 52.1 52.1" style="enable-background:new 0 0 52.1 52.1;" xml:space="preserve">
<style type="text/css">
	.st0{fill:url(#SVGID_1_);}
	.st1{fill:url(#SVGID_00000132790080169568026010000017355540142670792331_);}
</style>
<g id="O2cH3Z">
	<g>
		
			<linearGradient id="SVGID_1_" gradientUnits="userSpaceOnUse" x1="1.62" y1="27.9111" x2="50.5089" y2="27.9111" gradientTransform="matrix(1 0 0 -1 0 54)">
			<stop  offset="0" style="stop-color:#356DBD"/>
			<stop  offset="1" style="stop-color:#2F3080"/>
		</linearGradient>
		<path class="st0" d="M1.6,48.7c2.1-3.6,4.1-7.2,6.2-10.8c1.1-1.9,2.4-3.6,3.6-5.5c0.1-0.1,0.1-0.2,0.2-0.3
			c-0.5-0.5-0.9-0.9-1.4-1.4c-0.9-0.9-0.9-1.6,0-2.4c0.6-0.6,1.3-1.3,2-2c-0.6,0-1-0.1-1.5-0.1c-1.5-0.1-3.1-0.2-4.6-0.3
			c-1.2-0.1-1.9-1.1-1.3-2.2c3.3-6.4,8.3-10.7,15.6-11.9c1.5-0.2,3-0.1,4.5-0.2c0.2,0,0.5,0,0.7-0.2c4.3-3.3,9-5.9,13.9-8.2
			c1-0.5,1.9-0.9,2.9-1.3c2.4-0.9,4.5-0.5,6.3,1.3c1.8,1.8,2.3,4,1.3,6.3c-2.5,5.9-5.4,11.5-9.3,16.6c-0.2,0.2-0.3,0.6-0.3,0.8
			c0.4,7.5-2.6,13.5-8.5,18c-1.1,0.8-2.3,1.5-3.5,2.1c-1.2,0.6-2.2,0-2.2-1.3c-0.1-2-0.3-3.9-0.4-5.9c0,0,0,0-0.1-0.1
			c-0.1,0.1-0.2,0.2-0.4,0.3c-0.5,0.5-1.1,1.1-1.6,1.7c-0.7,0.7-1.5,0.7-2.3,0c-0.5-0.5-1-1-1.5-1.5c-0.4,0.3-0.8,0.5-1.1,0.8
			c-4.6,3.1-9.4,5.8-14.2,8.5c-0.4,0.2-0.8,0.5-1.2,0.7H2.7c-0.5-0.2-0.8-0.6-1-1C1.6,49.2,1.6,49,1.6,48.7L1.6,48.7z M27.2,34.8
			c7.2-4.8,12.9-11,16.7-18.8c-2.5-2.6-5.1-5.1-7.7-7.7c-7.8,3.8-14,9.5-18.8,16.7C20.6,28.2,23.9,31.5,27.2,34.8z M28.8,43.7
			c1.6-0.7,4.6-3.6,6.1-5.8c1.5-2.3,2.9-6.6,2.5-7.9c-0.1,0.1-0.2,0.2-0.3,0.3c-2.3,2.2-4.7,4.4-7.4,6.1c-1,0.7-1.3,1.3-1.2,2.4
			C28.7,40.5,28.7,42.1,28.8,43.7z M8.4,23.3c2,0.1,4,0.3,6,0.4c0.2,0,0.4-0.2,0.5-0.3c2-3,4.3-5.7,6.8-8.3c0.1-0.1,0.2-0.2,0.4-0.4
			C17.5,14.5,10,19.2,8.4,23.3L8.4,23.3z M13.2,29.5c3.1,3.2,6.3,6.3,9.3,9.4c0.8-0.8,1.6-1.6,2.3-2.3c-3.1-3.1-6.2-6.2-9.4-9.4
			C14.7,28.1,13.9,28.8,13.2,29.5L13.2,29.5z M45.4,13.1c0.7-1.5,1.4-3,2-4.5c0.5-1.2,0.2-2.3-0.7-3.2c-0.9-0.9-2-1.1-3.2-0.7
			c-0.4,0.1-0.7,0.3-1.1,0.5c-1.1,0.5-2.3,1-3.4,1.6C41.1,8.9,43.2,11,45.4,13.1L45.4,13.1z M7,45.2c3.7-2.1,7.4-4.2,10.8-6.6
			c-1.4-1.4-2.8-2.8-4.2-4.2C11.2,37.8,9.1,41.5,7,45.2z"/>
		
			<linearGradient id="SVGID_00000088100431710335429350000011664614279687669689_" gradientUnits="userSpaceOnUse" x1="25.48" y1="31.9199" x2="34.6" y2="31.9199" gradientTransform="matrix(1 0 0 -1 0 54)">
			<stop  offset="0" style="stop-color:#356DBD"/>
			<stop  offset="1" style="stop-color:#2F3080"/>
		</linearGradient>
		<path style="fill:url(#SVGID_00000088100431710335429350000011664614279687669689_);" d="M30,17.5c2.5,0,4.6,2,4.6,4.5
			c0,2.5-2,4.6-4.5,4.6c-2.5,0-4.6-2-4.6-4.6C25.5,19.6,27.5,17.5,30,17.5L30,17.5z M31.7,22.1c0-0.9-0.8-1.7-1.7-1.7
			s-1.7,0.8-1.7,1.7s0.8,1.7,1.7,1.7S31.8,23,31.7,22.1z"/>
	</g>
</g>
</svg>
