<?xml version="1.0" encoding="UTF-8"?>
<svg id="Layer_1" data-name="Layer 1" xmlns="http://www.w3.org/2000/svg" xmlns:xlink="http://www.w3.org/1999/xlink" viewBox="0 0 44.2 43.1">
  <defs>
    <style>
      .cls-1 {
        fill: url(#Degradado_sin_nombre_8);
      }
    </style>
    <linearGradient id="Degradado_sin_nombre_8" data-name="Degradado sin nombre 8" x1="0" y1="21.55" x2="44.2" y2="21.55" gradientUnits="userSpaceOnUse">
      <stop offset="0" stop-color="#7c0000"/>
      <stop offset="1" stop-color="#ca1111"/>
    </linearGradient>
  </defs>
  <path class="cls-1" d="m34.34,43.1H15.9c-.46-.22-.94-.41-1.37-.68-.72-.44-1.41-.93-2.11-1.4-.1-.06-.21-.11-.18-.09-.24.52-.38,1.07-.71,1.46-.28.33-.77.48-1.17.71H1.79c-.95-.24-1.55-.84-1.79-1.79v-24.55c.53-1.47.99-1.79,2.57-1.79,2.34,0,4.67,0,7.01,0,.67,0,1.31.05,1.85.54.11-.15.21-.27.3-.4,1.02-1.45,2.03-2.9,3.05-4.35,2.08-2.96,4.12-5.95,6.25-8.87,1.44-1.98,4.23-2.45,6.33-1.2,2.91,1.73,4.35,5.44,3.36,8.78-.51,1.71-1.11,3.39-1.67,5.08-.04.12-.07.25-.11.41.23,0,.4,0,.57,0,2.74,0,5.49,0,8.23,0,2.97.01,5.58,2.01,6.23,4.9.23,1.04.18,2.15.22,3.22.05,1.58-.33,3.06-1.04,4.48-2.33,4.63-4.65,9.26-6.95,13.9-.41.83-.94,1.43-1.86,1.62Zm-9.59-4.05c2.54,0,5.08-.01,7.62.01.43,0,.62-.14.8-.51,1.91-3.86,3.79-7.73,5.79-11.54.88-1.68,1.29-3.36,1.25-5.26-.04-1.51-1.02-2.8-2.79-2.78-3.67.06-7.34.02-11.01.02-1.77,0-2.66-1.24-2.1-2.93.84-2.52,1.69-5.04,2.51-7.57.5-1.54.01-3.15-1.19-4.12-.68-.55-1.14-.49-1.64.22-3.9,5.57-7.8,11.14-11.69,16.72-.14.2-.23.48-.23.73-.01,4.5,0,9-.02,13.5,0,.33.12.51.38.68,1.32.87,2.63,1.76,3.96,2.62.19.13.46.2.69.21,2.56.01,5.11,0,7.67,0Zm-16.72-.02v-20.01h-3.96v20.01h3.96Z"/>
</svg>