<?xml version="1.0" encoding="UTF-8"?>
<svg id="Layer_1" data-name="Layer 1" xmlns="http://www.w3.org/2000/svg" xmlns:xlink="http://www.w3.org/1999/xlink" viewBox="0 0 52.12 52.12">
  <defs>
    <style>
      .cls-1 {
        fill: url(#Degradado_sin_nombre_8-2);
      }

      .cls-2 {
        fill: url(#Degradado_sin_nombre_8);
      }
    </style>
    <linearGradient id="Degradado_sin_nombre_8" data-name="Degradado sin nombre 8" x1="0" y1="26.06" x2="52.12" y2="26.06" gradientUnits="userSpaceOnUse">
      <stop offset="0" stop-color="#7c0000"/>
      <stop offset="1" stop-color="#ca1111"/>
    </linearGradient>
    <linearGradient id="Degradado_sin_nombre_8-2" data-name="Degradado sin nombre 8" x1="9.12" y1="24.82" x2="43" y2="24.82" xlink:href="#Degradado_sin_nombre_8"/>
  </defs>
  <path class="cls-2" d="m26.06,0C11.69,0,0,11.69,0,26.06s11.69,26.06,26.06,26.06,26.06-11.69,26.06-26.06S40.43,0,26.06,0Zm0,48.12c-12.17,0-22.06-9.9-22.06-22.06S13.9,4,26.06,4s22.06,9.9,22.06,22.06-9.9,22.06-22.06,22.06Z"/>
  <path class="cls-1" d="m42.79,20.65c-.5-1.54-1.81-2.65-3.42-2.88l-6.45-.94c-.08-.01-.14-.06-.18-.13l-2.89-5.85h0c-.72-1.46-2.17-2.36-3.8-2.36s-3.08.9-3.8,2.36l-2.89,5.85c-.03.07-.1.12-.18.13l-6.45.94c-1.61.23-2.92,1.34-3.42,2.88s-.09,3.21,1.07,4.34l4.67,4.55c.05.05.08.13.07.21l-1.1,6.43c-.27,1.6.37,3.19,1.68,4.14.74.54,1.61.81,2.48.81.67,0,1.35-.16,1.97-.49l5.77-3.04c.07-.04.15-.04.22,0l5.77,3.04c1.44.76,3.14.63,4.46-.32,1.31-.95,1.96-2.54,1.68-4.14l-1.1-6.43c-.01-.08.01-.15.07-.21l4.67-4.55c1.16-1.13,1.57-2.8,1.07-4.34Zm-3.86,1.48l-4.67,4.55c-1,.97-1.45,2.37-1.22,3.75l1.1,6.43s.02.14-.09.23c-.12.08-.21.04-.25.02l-5.77-3.04c-1.23-.65-2.71-.65-3.94,0l-5.77,3.04s-.13.07-.25-.02c-.12-.09-.1-.19-.09-.23l1.1-6.43c.24-1.37-.22-2.77-1.22-3.75l-4.67-4.55s-.1-.1-.06-.24c.04-.14.15-.15.19-.16l6.45-.94c1.38-.2,2.57-1.07,3.19-2.32l2.89-5.85s.06-.13.21-.13.19.09.21.13l2.89,5.85c.62,1.25,1.81,2.12,3.19,2.32l6.45.94s.14.02.19.16c.04.14-.03.21-.06.24Z"/>
</svg>